<svg width="120" height="120" fill="none" xmlns="http://www.w3.org/2000/svg"><g clip-path="url(#a)"><path d="M59.768 81.675c31.352 0 56.768-9.704 56.768-21.675 0-11.97-25.416-21.675-56.768-21.675S3 48.029 3 60c0 11.97 25.416 21.675 56.768 21.675Z" stroke="#9BE1FB" stroke-width="5.18"/><path d="M40.997 70.838c15.676 27.151 36.788 44.31 47.155 38.324 10.367-5.985 6.063-32.848-9.613-60-15.676-27.151-36.788-44.31-47.155-38.325-10.367 5.986-6.063 32.849 9.613 60Z" stroke="#9BE1FB" stroke-width="5.18"/><path d="M40.997 49.163c-15.676 27.151-19.98 54.014-9.613 59.999 10.367 5.986 31.48-11.173 47.155-38.325 15.676-27.151 19.98-54.014 9.613-60-10.367-5.985-31.48 11.174-47.155 38.326Z" stroke="#9BE1FB" stroke-width="5.18"/><path d="M59.768 70.58c5.843 0 10.58-4.737 10.58-10.58s-4.737-10.58-10.58-10.58-10.58 4.737-10.58 10.58 4.737 10.58 10.58 10.58Z" fill="#9BE1FB"/></g><defs><clipPath id="a"><path fill="#fff" d="M0 0h120v120H0z"/></clipPath></defs></svg>
